<?xml version="1.0" encoding="UTF-8" standalone="no"?>
<svg
   xmlns:dc="http://purl.org/dc/elements/1.1/"
   xmlns:cc="http://creativecommons.org/ns#"
   xmlns:rdf="http://www.w3.org/1999/02/22-rdf-syntax-ns#"
   xmlns:svg="http://www.w3.org/2000/svg"
   xmlns="http://www.w3.org/2000/svg"
   xmlns:sodipodi="http://sodipodi.sourceforge.net/DTD/sodipodi-0.dtd"
   xmlns:inkscape="http://www.inkscape.org/namespaces/inkscape"
   sodipodi:docname="icon.svg"
   inkscape:version="1.0beta2 (2b71d25, 2019-12-03)"
   id="svg43"
   version="1.1"
   viewBox="0 0 384 384"
   height="384"
   width="384">
  <defs
     id="defs37" />
  <sodipodi:namedview
     inkscape:window-maximized="0"
     inkscape:window-y="23"
     inkscape:window-x="0"
     inkscape:window-height="755"
     inkscape:window-width="1280"
     units="px"
     showgrid="false"
     inkscape:document-rotation="0"
     inkscape:current-layer="layer1"
     inkscape:document-units="px"
     inkscape:cy="112.58708"
     inkscape:cx="158.21082"
     inkscape:zoom="0.86772068"
     inkscape:pageshadow="2"
     inkscape:pageopacity="0.0"
     borderopacity="1.0"
     bordercolor="#666666"
     pagecolor="#ffffff"
     id="base" />
  <metadata
     id="metadata40">
    <rdf:RDF>
      <cc:Work
         rdf:about="">
        <dc:format>image/svg+xml</dc:format>
        <dc:type
           rdf:resource="http://purl.org/dc/dcmitype/StillImage" />
        <dc:title></dc:title>
      </cc:Work>
    </rdf:RDF>
  </metadata>
  <g
     inkscape:label="Layer 2"
     id="layer2"
     inkscape:groupmode="layer">
    <rect
       y="-11.023703"
       x="-8.7188129"
       height="403.74252"
       width="397.98029"
       id="rect88"
       style="fill:#008000;stroke:#ffffff;stroke-width:1.00149" />
  </g>
  <g
     id="layer1"
     inkscape:groupmode="layer"
     inkscape:label="Layer 1">
    <g
       transform="matrix(1.3312521,0,0,-1.3,247.02531,131.3329)"
       id="g88">
      <path
         inkscape:connector-curvature="0"
         id="path90"
         style="fill:#ffffff;fill-opacity:1;fill-rule:nonzero;stroke:none"
         d="M 0,0 H -82.667 V 26.667 C -82.667,49.467 -64.133,68 -41.333,68 -18.533,68 0,49.467 0,26.667 Z m -41.333,-120 c -14.734,0 -26.667,11.933 -26.667,26.667 0,14.733 11.933,26.666 26.667,26.666 14.733,0 26.666,-11.933 26.666,-26.666 0,-14.734 -11.933,-26.667 -26.666,-26.667 m 80,120 H 25.333 v 26.667 c 0,36.8 -29.866,66.666 -66.666,66.666 -36.8,0 -66.667,-29.866 -66.667,-66.666 V 0 h -13.333 C -136.067,0 -148,-11.933 -148,-26.667 V -160 c 0,-14.733 11.933,-26.667 26.667,-26.667 h 160 c 14.733,0 26.666,11.934 26.666,26.667 V -26.667 C 65.333,-11.933 53.4,0 38.667,0" />
    </g>
  </g>
</svg>
