<?xml version="1.0" encoding="UTF-8" standalone="no"?>
<svg
   xmlns:dc="http://purl.org/dc/elements/1.1/"
   xmlns:cc="http://creativecommons.org/ns#"
   xmlns:rdf="http://www.w3.org/1999/02/22-rdf-syntax-ns#"
   xmlns:svg="http://www.w3.org/2000/svg"
   xmlns="http://www.w3.org/2000/svg"
   xmlns:sodipodi="http://sodipodi.sourceforge.net/DTD/sodipodi-0.dtd"
   xmlns:inkscape="http://www.inkscape.org/namespaces/inkscape"
   version="1.1"
   id="svg44"
   xml:space="preserve"
   width="1320"
   height="840"
   viewBox="0 0 1319.9999 840"
   sodipodi:docname="promo.svg"
   inkscape:version="1.0beta2 (2b71d25, 2019-12-03)"
   inkscape:export-filename="/Users/saranga/yet-another-whitelist-manager/src/assets/promo-440.png"
   inkscape:export-xdpi="32"
   inkscape:export-ydpi="32"><metadata
     id="metadata50"><rdf:RDF><cc:Work
         rdf:about=""><dc:format>image/svg+xml</dc:format><dc:type
           rdf:resource="http://purl.org/dc/dcmitype/StillImage" /><dc:title /></cc:Work></rdf:RDF></metadata><defs
     id="defs48"><clipPath
       clipPathUnits="userSpaceOnUse"
       id="clipPath62"><path
         d="M 0,680 H 920 V 0 H 0 Z"
         id="path60"
         inkscape:connector-curvature="0" /></clipPath><clipPath
       clipPathUnits="userSpaceOnUse"
       id="clipPath70"><path
         d="M 40,480 H 1280 V -203.322 H 40 Z"
         id="path68"
         inkscape:connector-curvature="0" /></clipPath><clipPath
       clipPathUnits="userSpaceOnUse"
       id="clipPath86"><path
         d="M 0,680 H 920 V 0 H 0 Z"
         id="path84"
         inkscape:connector-curvature="0" /></clipPath></defs><sodipodi:namedview
     pagecolor="#ffffff"
     bordercolor="#666666"
     inkscape:document-rotation="0"
     borderopacity="1"
     objecttolerance="10"
     gridtolerance="10"
     guidetolerance="10"
     inkscape:pageopacity="0"
     inkscape:pageshadow="2"
     inkscape:window-width="1280"
     inkscape:window-height="755"
     id="namedview46"
     showgrid="false"
     inkscape:zoom="0.60330881"
     inkscape:cx="739.75019"
     inkscape:cy="451.6758"
     inkscape:window-x="0"
     inkscape:window-y="23"
     inkscape:window-maximized="0"
     inkscape:current-layer="g52"
     fit-margin-top="0"
     fit-margin-left="0"
     fit-margin-right="0"
     fit-margin-bottom="0" /><g
     id="g52"
     inkscape:groupmode="layer"
     inkscape:label="promo"
     transform="matrix(1.3333333,0,0,-1.3333333,0,906.66664)"><path
       d="M 0,49.999984 H 990.00002 V 680 H 0 Z"
       style="fill:#008000;fill-opacity:1;fill-rule:nonzero;stroke:none;stroke-width:0.998474"
       id="path54"
       inkscape:connector-curvature="0" /><g
       id="g88"
       transform="translate(187.65082,421.47475)"><path
         d="M 0,0 H -82.667 V 26.667 C -82.667,49.467 -64.133,68 -41.333,68 -18.533,68 0,49.467 0,26.667 Z m -41.333,-120 c -14.734,0 -26.667,11.933 -26.667,26.667 0,14.733 11.933,26.666 26.667,26.666 14.733,0 26.666,-11.933 26.666,-26.666 0,-14.734 -11.933,-26.667 -26.666,-26.667 m 80,120 H 25.333 v 26.667 c 0,36.8 -29.866,66.666 -66.666,66.666 -36.8,0 -66.667,-29.866 -66.667,-66.666 V 0 h -13.333 C -136.067,0 -148,-11.933 -148,-26.667 V -160 c 0,-14.733 11.933,-26.667 26.667,-26.667 h 160 c 14.733,0 26.666,11.934 26.666,26.667 V -26.667 C 65.333,-11.933 53.4,0 38.667,0"
         style="fill:#ffffff;fill-opacity:1;fill-rule:nonzero;stroke:none"
         id="path90"
         inkscape:connector-curvature="0" /></g><text
       xml:space="preserve"
       style="font-style:normal;font-variant:normal;font-weight:bold;font-stretch:normal;font-size:30px;line-height:1.25;font-family:'Fira Code';-inkscape-font-specification:'Fira Code Bold';font-variant-ligatures:normal;font-variant-caps:normal;font-variant-numeric:normal;font-variant-east-asian:normal;text-align:center;text-anchor:middle;fill:#ffffff;fill-opacity:1;stroke:none;stroke-width:0.75"
       x="624.9776"
       y="-338.13528"
       id="text1042"
       transform="scale(1,-1)"><tspan
         sodipodi:role="line"
         id="tspan1040"
         x="624.9776"
         y="-338.13528"
         style="font-style:normal;font-variant:normal;font-weight:bold;font-stretch:normal;font-size:144px;font-family:'Gill Sans';-inkscape-font-specification:'Gill Sans Bold';font-variant-ligatures:normal;font-variant-caps:normal;font-variant-numeric:normal;font-variant-east-asian:normal;text-align:center;text-anchor:middle;fill:#ffffff;stroke-width:0.75">YAWM</tspan><tspan
         sodipodi:role="line"
         x="624.9776"
         y="-248.6114"
         style="font-style:normal;font-variant:normal;font-weight:bold;font-stretch:normal;font-size:40px;font-family:'Gill Sans';-inkscape-font-specification:'Gill Sans Bold';font-variant-ligatures:normal;font-variant-caps:normal;font-variant-numeric:normal;font-variant-east-asian:normal;text-align:center;text-anchor:middle;fill:#ffffff;stroke-width:0.75"
         id="tspan1046">(Yet Another Whitelist Manager)</tspan></text></g></svg>
